<?xml version="1.0" encoding="UTF-8"?>
<!DOCTYPE svg PUBLIC "-//W3C//DTD SVG 1.1//EN" "http://www.w3.org/Graphics/SVG/1.1/DTD/svg11.dtd">
<!-- Creator: CorelDRAW X7 -->
<svg xmlns="http://www.w3.org/2000/svg" xml:space="preserve" width="582px" height="83px" version="1.1" style="shape-rendering:geometricPrecision; text-rendering:geometricPrecision; image-rendering:optimizeQuality; fill-rule:evenodd; clip-rule:evenodd"
viewBox="0 0 370 53"
 xmlns:xlink="http://www.w3.org/1999/xlink">
 <defs>
  <style type="text/css">
   <![CDATA[
    .fil1 {fill:#6666FF;fill-rule:nonzero}
    .fil0 {fill:#6699FF;fill-rule:nonzero}
   ]]>
  </style>
 </defs>
 <g id="Layer_x0020_1">
  <metadata id="CorelCorpID_0Corel-Layer"/>
  <path class="fil0" d="M19 1c5,0 8,1 11,3 2,2 3,5 3,9 0,3 -1,6 -3,8 -2,1 -4,3 -8,3 5,0 9,2 11,4 2,2 3,5 3,10 0,5 -1,8 -4,10 -2,2 -6,4 -12,4l-20 0 0 -4 5 0 0 -44 -5 0 0 -3 19 0zm-8 3l0 19 6 0c3,0 6,-1 7,-2 2,-2 3,-4 3,-8 0,-3 -1,-5 -3,-7 -1,-1 -3,-2 -7,-2l-6 0zm0 22l0 22 8 0c3,0 6,-1 8,-2 2,-2 3,-5 3,-8 0,-4 -1,-7 -3,-9 -2,-2 -5,-3 -10,-3l-6 0z"/>
  <polygon id="1" class="fil0" points="73,48 73,32 78,32 78,52 41,52 41,48 46,48 46,4 41,4 41,1 76,1 76,18 71,18 71,4 53,4 53,23 66,23 66,27 53,27 53,48 "/>
  <path id="2" class="fil0" d="M102 6l-6 24 12 0 -6 -24zm-3 -5l8 0 13 47 5 0 0 4 -17 0 0 -4 5 0 -4 -14 -14 0 -4 14 5 0 0 4 -15 0 0 -4 6 0 12 -47z"/>
  <path id="3" class="fil1" d="M157 6l0 -5 10 0 0 16 -10 0 0 -1c0,-3 0,-6 -2,-7 -1,-2 -3,-2 -6,-2 -3,0 -5,0 -6,1 -1,2 -2,3 -2,6 0,2 1,4 2,5 1,1 5,2 10,3l0 0c6,1 10,2 12,4 2,1 3,3 4,5 1,2 1,4 1,6 0,5 -1,9 -4,11 -4,3 -8,5 -13,5 -3,0 -5,-1 -8,-2 -2,-1 -4,-3 -6,-5l0 6 -10 0 0 -17 10 0 0 1c0,3 1,6 3,8 2,2 4,3 8,3 2,0 5,-1 6,-2 2,-2 2,-4 2,-6 0,-2 0,-4 -2,-5 -2,-2 -5,-3 -10,-3 -6,-1 -10,-2 -13,-4 -2,-3 -4,-6 -4,-11 0,-5 2,-9 5,-12 2,-3 6,-4 11,-4 3,0 5,0 7,1 2,1 4,3 5,5z"/>
  <path id="4" class="fil1" d="M175 7c1,0 1,-1 1,-1 0,-1 0,-1 0,-2 0,0 0,-1 0,-1 0,-1 0,-1 -1,-2 3,0 5,0 7,0 2,1 4,1 6,1 1,0 3,0 5,-1 2,0 4,0 7,0 0,1 0,1 0,2 -1,0 -1,1 -1,1 0,0 1,1 1,2 0,0 0,1 0,1l-6 0 0 39 6 -1c0,1 0,2 0,2 0,1 0,1 0,2 0,0 0,0 0,1 0,1 0,1 0,2 -3,-1 -6,-1 -8,-1 -2,0 -3,0 -5,0 -1,0 -4,0 -8,0 -2,1 -3,1 -3,1 0,-1 0,-1 0,-1 0,-1 0,-2 0,-2 0,-1 0,-2 0,-2 0,-1 0,-1 -1,-2l7 1 0 -39 -7 0z"/>
  <path id="5" class="fil1" d="M233 6l0 -5 10 0 0 16 -9 0 0 -1c0,-3 -1,-6 -2,-7 -2,-2 -4,-2 -7,-2 -2,0 -4,0 -6,1 -1,2 -2,3 -2,6 0,2 1,4 2,5 2,1 5,2 10,3l0 0c6,1 10,2 13,4 1,1 2,3 3,5 1,2 2,4 2,6 0,5 -2,9 -5,11 -3,3 -7,5 -12,5 -3,0 -6,-1 -8,-2 -3,-1 -5,-3 -7,-5l0 6 -9 0 0 -17 9 0 0 1c0,3 1,6 3,8 2,2 5,3 8,3 3,0 5,-1 6,-2 2,-2 3,-4 3,-6 0,-2 -1,-4 -3,-5 -1,-2 -5,-3 -9,-3 -7,-1 -11,-2 -14,-4 -2,-3 -3,-6 -3,-11 0,-5 1,-9 4,-12 3,-3 7,-4 11,-4 3,0 6,0 8,1 2,1 3,3 4,5z"/>
  <path id="6" class="fil1" d="M250 1c2,0 4,0 6,0 2,1 4,1 5,1 2,0 3,0 5,-1 2,0 4,0 7,0 0,0 0,1 0,1 -1,1 -1,2 -1,2 0,1 0,2 1,3 0,0 0,0 0,0l-6 0 8 41 6 -47c2,0 3,0 5,0 1,1 2,1 3,1 1,0 2,0 4,-1 1,0 2,0 4,0l7 47 7 -41 -6 0c0,-1 0,-1 0,-2 0,0 0,-1 0,-1 0,0 0,-1 0,-1 0,-1 0,-1 0,-2 2,0 4,0 6,0 1,1 3,1 4,1 1,0 2,0 4,-1 1,0 3,0 5,0 0,0 0,1 0,2 0,0 0,1 0,1 0,0 0,1 0,2 0,0 0,1 0,1l-6 0 -8 45c-2,0 -4,0 -5,0 -1,0 -2,0 -3,0 -1,0 -2,0 -3,0 -1,0 -3,0 -5,0l-7 -46 -7 46c-1,0 -3,0 -4,0 -1,0 -2,0 -3,0 -1,0 -2,0 -4,0 -1,0 -2,0 -4,0l-9 -45 -6 0c0,0 0,-1 0,-1 0,-1 0,-1 0,-2 0,0 0,-1 0,-1 0,-1 0,-1 0,-2z"/>
  <path id="7" class="fil1" d="M344 6l-6 23 11 0 -5 -23zm-6 -5c1,0 3,0 4,0 1,1 2,1 4,1 1,0 2,0 4,-1 1,0 2,0 3,0l12 45 5 -1c0,1 0,1 0,2 0,0 0,1 0,2 0,0 0,1 0,1 0,1 0,1 0,2 -2,-1 -4,-1 -6,-1 -2,0 -4,0 -6,0 -1,0 -2,0 -4,0 -2,0 -4,0 -6,1 0,-1 0,-2 0,-2 0,-1 0,-1 0,-1 0,-1 0,-1 0,-2 0,0 0,-1 0,-2l5 1 -2 -12 -14 0 -3 12 6 -1c0,1 0,1 0,2 0,0 0,1 0,2 0,0 0,1 0,1 0,1 0,1 0,2 -2,-1 -4,-1 -6,-1 -1,0 -3,0 -4,0 -1,0 -2,0 -3,0 -2,0 -3,0 -5,1 0,-1 0,-2 0,-2 0,-1 0,-1 0,-2 0,0 0,-1 0,-2 0,0 0,0 0,-1l4 1 12 -45z"/>
 </g>
</svg>
