<?xml version="1.0" encoding="UTF-8"?>
<!DOCTYPE svg PUBLIC "-//W3C//DTD SVG 1.1//EN" "http://www.w3.org/Graphics/SVG/1.1/DTD/svg11.dtd">
<!-- Creator: CorelDRAW X7 -->
<svg xmlns="http://www.w3.org/2000/svg" xml:space="preserve" width="132px" height="83px" version="1.1" style="shape-rendering:geometricPrecision; text-rendering:geometricPrecision; image-rendering:optimizeQuality; fill-rule:evenodd; clip-rule:evenodd"
viewBox="0 0 19 12"
 xmlns:xlink="http://www.w3.org/1999/xlink">
 <defs>
  <style type="text/css">
   <![CDATA[
    .fil1 {fill:#6666FF;fill-rule:nonzero}
    .fil0 {fill:#6699FF;fill-rule:nonzero}
   ]]>
  </style>
 </defs>
 <g id="Layer_x0020_1">
  <metadata id="CorelCorpID_0Corel-Layer"/>
  <path class="fil0" d="M4 0c1,0 2,0 3,1 0,0 0,1 0,2 0,1 0,1 0,2 -1,0 -1,0 -2,0 1,1 2,1 2,1 1,1 1,2 1,3 0,1 0,1 -1,2 0,0 -1,1 -2,1l-5 0 0 -1 1 0 0 -10 -1 0 0 -1 4 0zm-1 1l0 4 1 0c1,0 1,0 1,0 1,-1 1,-1 1,-2 0,-1 0,-1 0,-2 -1,0 -1,0 -2,0l-1 0zm0 5l0 5 1 0c1,0 2,0 2,-1 1,0 1,-1 1,-1 0,-1 0,-2 -1,-2 0,-1 -1,-1 -2,-1l-1 0z"/>
  <path id="1" class="fil1" d="M16 1l0 -1 2 0 0 4 -2 0 0 0c0,-1 0,-2 0,-2 -1,0 -1,-1 -2,-1 0,0 -1,1 -1,1 0,0 -1,1 -1,1 0,1 1,1 1,1 0,1 1,1 2,1l0 0c1,0 2,0 3,1 0,0 1,0 1,1 0,0 0,1 0,1 0,1 0,2 -1,3 -1,1 -2,1 -3,1 0,0 -1,0 -2,0 0,-1 -1,-1 -1,-2l0 2 -2 0 0 -4 2 0 0 0c0,1 0,1 1,2 0,0 1,1 1,1 1,0 2,-1 2,-1 0,0 0,-1 0,-1 0,-1 0,-1 0,-1 -1,-1 -1,-1 -2,-1 -2,0 -3,0 -3,-1 -1,0 -1,-1 -1,-2 0,-1 0,-2 1,-3 0,-1 1,-1 2,-1 1,0 2,0 2,0 0,1 1,1 1,1z"/>
 </g>
</svg>
